<?xml version="1.0" standalone="no"?>
<!DOCTYPE svg PUBLIC "-//W3C//DTD SVG 20010904//EN"
 "http://www.w3.org/TR/2001/REC-SVG-20010904/DTD/svg10.dtd">
<svg version="1.0" xmlns="http://www.w3.org/2000/svg"
 width="240.000000pt" height="238.000000pt" viewBox="0 0 240.000000 238.000000"
 preserveAspectRatio="xMidYMid meet">

<g transform="translate(0.000000,238.000000) scale(0.100000,-0.100000)"
fill="#000000" stroke="none">
<path d="M1090 2194 c-14 -2 -56 -9 -95 -15 -82 -12 -235 -63 -285 -94 -19
-12 -45 -25 -57 -29 -13 -4 -23 -11 -23 -16 0 -4 -10 -10 -23 -13 -33 -9 -196
-165 -242 -233 -22 -32 -42 -61 -45 -64 -28 -27 -77 -122 -107 -210 -49 -143
-69 -349 -48 -495 35 -244 183 -492 386 -645 183 -137 380 -203 609 -203 178
0 298 27 457 104 249 119 448 360 523 631 18 67 44 313 34 329 -1 3 -8 44 -14
91 -14 115 -45 209 -113 343 -35 69 -78 127 -156 208 -145 152 -319 248 -530
292 -77 16 -227 27 -271 19z m171 -140 c7 -4 30 -9 53 -10 78 -7 316 -98 316
-121 0 -5 15 -14 33 -22 40 -18 204 -182 234 -236 39 -68 93 -184 91 -192 -1
-4 6 -25 15 -45 21 -49 41 -227 33 -292 -4 -28 -9 -73 -11 -100 -5 -50 -23
-113 -37 -131 -4 -5 -8 -16 -8 -25 0 -19 -53 -131 -71 -150 -8 -8 -21 -28 -29
-45 -21 -43 -179 -196 -226 -220 -21 -11 -40 -23 -42 -27 -5 -11 -119 -65
-172 -82 -77 -24 -150 -38 -170 -33 -11 3 -23 1 -26 -4 -3 -5 -41 -9 -85 -9
-62 0 -81 3 -85 15 -5 11 -10 13 -19 5 -18 -15 -185 22 -185 41 0 5 -6 6 -13
3 -14 -5 -139 54 -145 68 -2 4 -20 16 -40 25 -102 49 -304 309 -325 420 -2 10
-7 25 -10 33 -34 81 -40 122 -41 255 -1 147 22 281 50 292 7 2 10 11 7 20 -6
15 64 163 77 163 4 0 10 10 14 23 8 32 96 129 112 123 8 -3 11 0 8 9 -5 13 80
87 138 121 42 24 143 72 178 84 105 37 348 65 381 44z m746 -1186 c-3 -8 -6
-5 -6 6 -1 11 2 17 5 13 3 -3 4 -12 1 -19z m-1647 -80 c0 -4 20 -38 45 -75 49
-74 51 -77 80 -113 l20 -25 -23 20 c-51 43 -163 226 -162 265 1 14 39 -56 40
-72z m1640 47 c0 -8 -4 -15 -10 -15 -5 0 -7 7 -4 15 4 8 8 15 10 15 2 0 4 -7
4 -15z m-10 -29 c0 -3 -4 -8 -10 -11 -5 -3 -10 -1 -10 4 0 6 5 11 10 11 6 0
10 -2 10 -4z m-20 -34 c0 -8 -49 -82 -54 -82 -7 0 39 89 47 90 4 0 7 -3 7 -8z
m-119 -175 c-10 -9 -11 -8 -5 6 3 10 9 15 12 12 3 -3 0 -11 -7 -18z m-848
-294 c-7 -2 -21 -2 -30 0 -10 3 -4 5 12 5 17 0 24 -2 18 -5z m154 -9 c-7 -7
-128 -7 -135 1 -3 3 28 5 68 5 40 0 71 -3 67 -6z m111 -1 c-10 -2 -26 -2 -35
0 -10 3 -2 5 17 5 19 0 27 -2 18 -5z"/>
<path d="M1131 1464 c0 -11 3 -14 6 -6 3 7 2 16 -1 19 -3 4 -6 -2 -5 -13z"/>
<path d="M1084 1253 c-15 -21 -29 -40 -30 -42 -2 -2 -10 2 -19 9 -13 11 -14
10 -9 -3 3 -8 11 -18 19 -20 7 -3 16 -26 19 -51 6 -36 11 -46 26 -46 10 0 22
-4 25 -10 3 -5 13 -10 22 -10 9 0 22 -8 29 -17 9 -12 13 -14 14 -5 0 7 14 18
30 23 17 6 30 15 30 20 0 5 8 9 18 9 12 0 17 8 17 28 0 15 4 42 8 61 4 19 4
32 1 28 -3 -3 -21 10 -39 29 -29 30 -38 34 -82 34 -47 0 -53 -3 -79 -37z m104
-66 c4 -20 -25 -34 -40 -19 -15 15 -1 44 19 40 10 -2 19 -11 21 -21z"/>
<path d="M1041 1104 c0 -11 3 -14 6 -6 3 7 2 16 -1 19 -3 4 -6 -2 -5 -13z"/>
<path d="M1250 1090 c0 -5 5 -10 10 -10 6 0 10 5 10 10 0 6 -4 10 -10 10 -5 0
-10 -4 -10 -10z"/>
</g>
</svg>
